<svg version="1.1" id="Layer_1" xmlns="http://www.w3.org/2000/svg" xmlns:xlink="http://www.w3.org/1999/xlink" x="0px" y="0px"
	 width="100%" viewBox="0 0 800 800" enable-background="new 0 0 800 800" xml:space="preserve">
<path fill="#FFFFFF" opacity="1.000000" stroke="none" 
	d="
M448.000000,801.000000 
	C298.689911,801.000000 149.879807,801.000000 1.069703,801.000000 
	C1.046472,800.856567 1.002872,800.713196 1.002870,800.569763 
	C0.999991,534.111389 1.000000,267.652985 1.000000,1.097292 
	C267.560150,1.097292 534.120361,1.097292 800.840271,1.097292 
	C800.840271,267.666595 800.840271,534.333313 800.840271,801.000000 
	C683.462952,801.000000 565.981506,801.000000 448.000000,801.000000 
M162.572739,469.052917 
	C168.376266,466.766388 174.179794,464.479858 180.562927,461.964935 
	C180.646088,462.013672 181.514816,462.500031 182.361298,463.022461 
	C204.476089,476.670502 232.800446,469.959137 245.867584,447.971497 
	C259.100464,425.704987 251.383026,397.482300 228.340073,384.824463 
	C225.204987,383.102325 224.914764,381.167725 224.957565,378.143005 
	C225.322037,352.387909 205.079498,331.774689 179.608414,331.803345 
	C154.056519,331.832092 133.745392,352.441376 134.242828,378.126648 
	C134.313049,381.752563 133.364258,383.528076 130.089676,385.320160 
	C110.488281,396.047455 102.025200,420.173889 110.109756,441.316803 
	C117.959503,461.845642 140.187637,473.848816 162.572739,469.052917 
M495.736542,369.470123 
	C488.311096,366.492615 482.654541,369.957458 477.221802,375.033478 
	C474.717590,369.554688 469.897705,367.745178 465.123016,368.432068 
	C460.524353,369.093628 456.226532,371.846405 451.552368,373.781494 
	C451.330322,373.143738 450.860901,371.795410 450.416351,370.518524 
	C446.925476,370.518524 443.680695,370.518524 440.382690,370.518524 
	C440.382690,383.415985 440.382690,395.941254 440.382690,408.464844 
	C444.419006,408.464844 447.991333,408.464844 452.004425,408.464844 
	C452.004425,404.786591 451.811005,401.467438 452.051758,398.180084 
	C452.376953,393.739929 452.518372,389.177673 453.716980,384.944885 
	C454.658875,381.618561 457.193207,378.369720 461.391815,379.200256 
	C465.533508,380.019623 464.962555,383.831665 464.981689,386.950165 
	C465.025299,394.059052 464.995453,401.168396 464.995453,408.848267 
	C467.426514,408.848267 469.243713,408.636688 470.994019,408.889130 
	C475.689911,409.566437 477.745880,407.957672 477.145660,402.978912 
	C476.769531,399.858429 476.678070,396.590729 477.179749,393.506348 
	C477.782471,389.800690 478.587799,385.898468 480.405884,382.708618 
	C481.447784,380.880585 484.659210,379.541168 486.922791,379.498016 
	C487.934387,379.478699 489.751984,383.127716 489.923309,385.216919 
	C490.357666,390.513397 490.067871,395.869202 490.068573,401.201263 
	C490.069611,409.049225 490.069489,408.924927 498.088959,408.907959 
	C501.373749,408.901001 503.003632,408.091125 502.906342,404.426819 
	C502.707458,396.933899 503.019012,389.426605 502.783966,381.935760 
	C502.629272,377.005432 501.522766,372.286438 495.736542,369.470123 
M348.277954,376.107880 
	C343.371887,364.782257 338.465851,353.456635 333.082947,341.030182 
	C323.094757,364.034973 313.576782,385.956665 303.778046,408.525055 
	C307.450195,408.525055 310.436920,408.814545 313.323547,408.402679 
	C314.762543,408.197357 316.990906,406.892578 317.203644,405.770691 
	C318.948242,396.569427 324.877563,394.610352 333.014191,395.998749 
	C333.337494,396.053925 333.678406,396.005798 334.011108,396.005798 
	C342.723602,396.005798 342.641785,396.040070 346.102295,404.292328 
	C346.774506,405.895325 348.222290,408.143036 349.548859,408.319977 
	C353.547150,408.853271 357.662079,408.512421 362.325104,408.512421 
	C357.546082,397.414124 353.101685,387.092926 348.277954,376.107880 
M588.044373,399.463074 
	C593.893250,409.345795 598.000305,411.187469 607.020813,407.680634 
	C602.359741,400.584595 597.736816,393.546661 592.942200,386.247253 
	C597.470093,382.690552 601.705200,379.363831 605.953857,376.026489 
	C599.684937,368.998230 599.671692,368.979492 592.907715,373.753235 
	C589.174255,376.388123 585.493835,379.098236 580.741821,382.531311 
	C580.741821,367.593048 580.741821,353.915497 580.741821,340.246155 
	C576.283875,340.246155 572.526672,340.246155 569.045410,340.246155 
	C568.670227,340.695740 568.470581,340.823120 568.469971,340.951477 
	C568.362000,362.582489 568.233215,384.213684 568.287231,405.844391 
	C568.289734,406.832611 569.859802,408.555908 570.843079,408.666870 
	C574.052917,409.029144 577.329224,408.802704 580.052124,408.802704 
	C582.583313,403.331451 578.184021,397.059418 584.199341,392.769531 
	C585.529968,395.121979 586.585388,396.987823 588.044373,399.463074 
M541.886597,372.338287 
	C533.904480,365.990631 522.300720,367.473907 516.317749,375.606689 
	C509.410950,384.995209 510.621033,400.177063 518.957520,405.894623 
	C526.979675,411.396545 535.080566,411.247070 542.827515,405.126099 
	C545.097900,409.367096 548.266113,410.042511 555.525635,408.065582 
	C555.525635,395.508057 555.525635,382.975342 555.525635,368.897705 
	C550.576965,370.372192 546.484863,371.591461 541.886597,372.338287 
M271.999420,451.496552 
	C272.003448,456.158569 271.579865,460.881775 272.233246,465.450928 
	C272.476166,467.149628 275.084503,469.338226 276.913727,469.674683 
	C278.029877,469.880005 279.824799,467.065216 281.084961,465.429810 
	C281.489624,464.904602 281.164551,463.813049 281.164581,462.980621 
	C281.165436,421.854492 281.165710,380.728333 281.162964,339.602203 
	C281.162903,338.604034 281.531860,337.257172 281.030121,336.676208 
	C279.768463,335.215210 278.097351,333.108032 276.607269,333.121613 
	C275.076965,333.135468 273.276184,335.146881 272.160187,336.692963 
	C271.522858,337.575958 272.001556,339.274628 272.001465,340.606018 
	C271.998901,377.236603 271.999420,413.867157 271.999420,451.496552 
M631.261108,368.906860 
	C621.904297,369.889679 614.481384,376.459229 612.433289,385.570190 
	C610.698608,393.286804 614.774109,402.706360 621.559631,406.663544 
	C629.409851,411.241669 640.483459,410.611298 646.896912,405.053497 
	C645.241638,402.326416 643.570984,399.573975 641.866028,396.764984 
	C636.923584,399.115692 632.496216,400.574219 627.353638,395.875366 
	C635.567017,393.285095 642.916138,390.876129 650.327515,388.676636 
	C653.138306,387.842499 654.604431,386.658691 653.893616,383.422913 
	C651.796997,373.878693 642.056641,367.277557 631.261108,368.906860 
M407.590485,379.861603 
	C408.058380,381.223297 408.909485,382.578918 408.931183,383.947693 
	C409.059143,392.022400 408.994202,400.100220 408.994202,408.259125 
	C413.325562,408.259125 417.062469,408.259125 421.194641,408.259125 
	C421.194641,398.763672 421.194641,389.527435 421.194641,379.894043 
	C424.362579,379.894043 427.133881,379.894043 430.152466,379.894043 
	C430.152466,376.450226 430.152466,373.414246 430.152466,370.001129 
	C426.994049,370.001129 424.209137,370.001129 420.970642,370.001129 
	C420.970642,364.388641 420.970642,359.153595 420.970642,354.078430 
	C416.744202,354.078430 412.982208,354.078430 408.789673,354.078430 
	C408.789673,359.567749 408.789673,364.800354 408.789673,369.979401 
	C406.742889,370.158081 405.136902,370.298309 403.160767,370.470856 
	C403.160767,372.722321 403.316772,374.703156 403.123840,376.649384 
	C402.842499,379.487457 404.284424,380.124695 407.590485,379.861603 
M383.882111,375.792999 
	C383.318146,376.309845 382.754150,376.826721 381.746521,377.750153 
	C381.323395,375.092133 380.990723,373.002258 380.624878,370.704163 
	C377.111115,370.704163 373.690826,370.704163 370.052185,370.704163 
	C370.052185,383.307709 370.052185,395.707550 370.052185,408.305664 
	C374.037842,408.305664 377.789825,408.305664 382.005768,408.305664 
	C382.005768,404.649963 382.005768,401.201447 382.005768,397.752930 
	C382.005859,385.754486 384.058746,383.013947 395.693756,379.832153 
	C395.693756,376.259583 395.693756,372.596313 395.693756,367.358032 
	C391.287384,370.406647 387.829773,372.798828 383.882111,375.792999 
M663.151794,391.497498 
	C663.152954,395.987000 662.943604,400.492523 663.283142,404.956329 
	C663.385498,406.302856 664.863220,408.464264 665.968018,408.640442 
	C669.121033,409.143341 672.406250,408.817200 675.393066,408.817200 
	C675.708740,407.595428 675.861450,407.274780 675.864197,406.952911 
	C675.899292,402.796539 675.910828,398.640045 675.932556,394.483551 
	C675.975159,386.317230 678.890320,382.780853 686.737610,380.770447 
	C687.943665,380.461456 689.501770,378.922394 689.687927,377.758759 
	C690.124268,375.031067 689.827454,372.186096 689.827454,369.071320 
	C683.135010,369.007263 679.842651,374.082153 675.293579,377.887482 
	C675.150940,376.394287 674.956787,375.596313 675.019165,374.818939 
	C675.492126,368.919861 671.197205,370.427979 667.932617,370.121216 
	C664.166748,369.767395 662.934082,371.391205 663.094788,375.037354 
	C663.321594,380.181976 663.152161,385.344055 663.151794,391.497498 
M652.675171,443.643372 
	C652.675171,442.165192 652.675171,440.687042 652.675171,439.226562 
	C658.276489,442.061462 657.441284,450.620148 665.365417,450.635162 
	C665.365417,443.781433 665.365417,437.408295 665.365417,430.345490 
	C657.666870,432.124603 663.918579,439.201965 660.541077,441.755676 
	C655.780640,439.116577 656.416687,430.403625 648.324768,430.793213 
	C648.324768,436.117065 648.135925,440.619751 648.413147,445.093567 
	C648.532166,447.013733 646.616577,450.359436 650.542786,450.384369 
	C651.242065,450.388794 651.967224,446.896790 652.667725,445.014496 
	C652.722107,444.868347 652.674988,444.684387 652.675171,443.643372 
M603.849426,444.694611 
	C606.012878,447.030090 606.333557,452.124817 611.652466,450.021973 
	C611.652466,443.626129 611.652466,437.401245 611.652466,430.986115 
	C610.330750,430.986115 609.239685,430.986115 607.539917,430.986115 
	C607.539917,434.808044 607.539917,438.455475 607.539917,442.393860 
	C602.193359,439.337830 602.651184,430.852783 594.970947,430.815796 
	C594.970947,437.608154 594.970947,443.868317 594.970947,450.128510 
	C595.658691,450.377686 596.346375,450.626892 597.034119,450.876068 
	C601.108093,448.258881 597.316589,442.484894 599.713928,438.746368 
	C601.035278,440.654938 602.225525,442.373962 603.849426,444.694611 
M356.894562,442.263611 
	C357.076691,437.683960 353.559906,439.557159 351.563385,439.499420 
	C349.721527,439.446198 347.850861,440.389099 345.992889,440.893219 
	C347.781647,441.511932 349.574982,442.117950 351.354248,442.762848 
	C351.625397,442.861145 351.831207,443.139557 352.243713,443.480530 
	C350.597504,447.492004 347.550537,447.685455 344.221954,446.145020 
	C341.083221,444.692383 340.092072,440.197906 342.090332,437.044250 
	C344.108429,433.859406 346.890472,433.321472 350.246979,435.062225 
	C351.924713,435.932251 353.744843,436.527618 356.507141,437.659790 
	C354.781403,432.153564 351.669006,430.639282 347.786530,430.424438 
	C343.665344,430.196411 340.295197,431.717255 338.202087,435.451752 
	C335.349457,440.541290 337.259125,447.028595 342.324951,449.604370 
	C348.317413,452.651337 353.980865,450.100372 356.894562,442.263611 
M676.556091,444.528076 
	C674.787903,441.245667 674.743591,437.996429 677.680969,435.493073 
	C680.341003,433.226074 683.062866,433.813812 685.755798,436.080627 
	C686.729614,436.900360 688.569763,436.690887 690.457275,437.030762 
	C687.801941,431.093292 682.920288,429.082458 677.501648,431.038696 
	C672.597717,432.809113 670.018188,438.452484 671.695190,443.741821 
	C673.349426,448.959625 678.682007,451.865417 683.910889,450.398438 
	C689.313416,448.882721 691.529968,445.235199 690.352722,439.380798 
	C688.772522,439.380798 687.103455,439.207733 685.487671,439.426941 
	C683.687561,439.671143 681.935852,440.272156 680.163086,440.717804 
	C681.914490,441.390137 683.665955,442.062469 685.417358,442.734772 
	C685.726074,442.853271 686.034851,442.971588 686.342468,443.092834 
	C684.281067,447.658783 682.128845,448.146576 676.556091,444.528076 
M395.073944,436.795135 
	C393.420685,445.293915 396.897400,450.083954 405.187622,450.908875 
	C406.373016,451.026794 407.514221,451.701019 408.649994,452.179230 
	C410.450928,452.937531 412.230042,453.747620 414.018372,454.535797 
	C414.197266,454.216492 414.376129,453.897217 414.554993,453.577942 
	C413.396942,452.037994 412.238892,450.498047 411.119568,449.009613 
	C416.215485,442.332672 416.015869,436.055450 410.728516,432.256592 
	C405.699219,428.643097 399.401978,430.218201 395.073944,436.795135 
M373.504211,438.765381 
	C371.420715,438.765381 369.337219,438.765381 366.958618,438.765381 
	C366.958618,435.966644 366.958618,433.687836 366.958618,431.103821 
	C365.455627,431.103821 364.258484,431.103821 362.979187,431.103821 
	C362.979187,437.607758 362.979187,443.861755 362.979187,450.323669 
	C364.118164,450.323669 365.840546,450.511475 365.892914,450.295074 
	C366.522217,447.695190 366.904114,445.035461 367.356262,442.357849 
	C369.909180,442.357849 372.455078,442.357849 374.979340,442.357849 
	C375.313690,450.223419 375.313690,450.223419 378.933716,450.141327 
	C378.933716,443.765717 378.933716,437.390411 378.933716,430.800659 
	C377.542633,430.905334 376.447052,430.987793 375.483276,431.060303 
	C375.125519,433.809875 374.811554,436.222656 373.504211,438.765381 
M308.131714,437.695496 
	C308.131714,435.550018 308.131714,433.404541 308.131714,431.056824 
	C306.565674,431.056824 305.336761,431.056824 303.949860,431.056824 
	C303.949860,436.835999 303.803741,442.335999 304.072327,447.815674 
	C304.126495,448.920471 305.752716,449.948212 306.654114,451.011475 
	C307.135803,450.705963 307.617462,450.400421 308.099121,450.094910 
	C308.099121,447.518036 308.099121,444.941132 308.099121,442.395020 
	C311.107178,442.395020 313.652954,442.395020 316.381256,442.395020 
	C316.381256,444.232574 316.140381,445.780029 316.455353,447.204590 
	C316.720856,448.405457 317.631989,449.463623 318.257294,450.584961 
	C319.044434,449.459137 320.441040,448.369598 320.510620,447.201050 
	C320.777557,442.718536 320.500153,438.206573 320.656006,433.713562 
	C320.781586,430.093689 318.886261,430.582275 316.610596,431.143402 
	C316.393158,433.825989 316.198242,436.230743 316.006775,438.592682 
	C313.178345,438.592682 310.852783,438.592682 308.131714,437.695496 
M562.970459,434.795288 
	C562.970764,439.103790 563.038879,443.413727 562.950134,447.720398 
	C562.877136,451.262604 564.618347,450.900238 566.863831,450.002777 
	C567.012451,447.502136 567.144226,445.284576 567.290955,442.816101 
	C571.839966,444.054169 570.555542,452.188995 577.357849,450.151794 
	C576.006165,447.524902 574.751526,445.086700 573.519714,442.692871 
	C577.825928,439.225494 578.694580,435.899933 576.219727,432.935547 
	C574.489746,430.863403 564.928711,429.680084 563.225037,431.468323 
	C562.783691,431.931549 563.036621,433.056122 562.970459,434.795288 
M432.789062,432.532349 
	C432.767212,436.023712 433.162933,439.592712 432.534851,442.971405 
	C432.251160,444.497559 429.930084,445.645020 428.533356,446.964325 
	C427.314148,445.565918 425.254395,444.283234 425.042725,442.746094 
	C424.529205,439.017731 424.875763,435.170898 424.875763,431.100220 
	C423.417267,431.100220 422.222198,431.100220 420.786530,431.100220 
	C420.786530,435.045013 420.750061,438.686646 420.795105,442.327271 
	C420.861969,447.732056 423.561127,450.732971 428.381989,450.850372 
	C433.023743,450.963348 436.509125,447.835358 436.814087,442.867584 
	C437.054413,438.952850 436.862366,435.011597 436.862366,430.284363 
	C435.029541,430.950867 433.930786,431.350403 432.789062,432.532349 
M445.096466,441.461182 
	C444.145416,444.352112 443.194366,447.243042 441.930359,451.085144 
	C445.775391,449.410919 448.673828,447.173370 451.581299,447.161499 
	C454.401367,447.150024 457.230713,449.424622 461.095123,451.162628 
	C458.673401,444.289062 456.811890,438.673737 454.653900,433.174774 
	C454.246765,432.137299 452.592377,430.859100 451.633179,430.950287 
	C450.388092,431.068665 448.792114,432.196014 448.184814,433.335480 
	C446.954590,435.643738 446.287933,438.252319 445.096466,441.461182 
M548.484680,443.038422 
	C554.809570,442.612640 557.611572,440.326355 557.098511,436.010040 
	C556.531799,431.242493 552.508301,429.882721 542.957031,431.304474 
	C542.957031,437.521271 542.957031,443.760284 542.957031,449.999298 
	C543.332825,450.316925 543.708618,450.634521 544.084412,450.952148 
	C545.013306,449.902649 546.260681,448.990356 546.787476,447.767609 
	C547.394714,446.358337 547.365723,444.674896 548.484680,443.038422 
M524.664124,430.787354 
	C522.852051,433.271362 521.039917,435.755371 519.216248,438.255249 
	C514.355286,430.886169 514.355286,430.886169 512.084045,431.203369 
	C513.768494,437.156342 515.383850,443.244232 517.315002,449.230225 
	C517.568115,450.014771 519.440186,450.277008 519.483582,450.296509 
	C521.965515,444.352417 524.157471,439.130981 526.322266,433.898285 
	C526.856995,432.605865 528.892090,430.758087 524.664124,430.787354 
M499.457428,430.787018 
	C492.609619,430.786743 492.609619,430.786743 492.273041,433.810486 
	C493.828949,433.979919 495.388214,434.149719 497.128418,434.339203 
	C497.128418,438.966522 497.208313,443.256104 497.102600,447.541046 
	C497.021210,450.840668 498.548370,451.002411 501.234436,449.973206 
	C501.234436,444.720520 501.234436,439.631439 501.234436,434.484222 
	C503.150024,434.138397 504.827698,433.835541 506.505371,433.532684 
	C506.579956,432.935303 506.654572,432.337891 506.729156,431.740509 
	C504.602051,431.422729 502.474945,431.104950 499.457428,430.787018 
M628.428833,434.041992 
	C629.618774,433.419067 630.808716,432.796143 631.998596,432.173187 
	C630.801331,431.711060 629.634766,431.116058 628.396790,430.830109 
	C627.454163,430.612335 626.409485,430.690491 625.430054,430.805603 
	C622.777954,431.117371 620.136414,431.518951 617.490723,431.884949 
	C619.081421,432.721039 620.672668,433.555939 622.261658,434.395264 
	C622.404602,434.470734 622.532532,434.574615 623.068481,434.935059 
	C623.068481,439.880341 623.068481,445.095337 623.068481,450.310364 
	C623.587341,450.541473 624.106140,450.772583 624.625000,451.003723 
	C625.373901,449.783813 626.641602,448.618805 626.777527,447.334045 
	C627.240662,442.957184 627.304871,438.538086 628.428833,434.041992 
M470.675201,437.648193 
	C470.674805,430.765015 470.674805,430.765015 466.756775,431.320587 
	C466.756775,437.701996 466.756775,444.059357 466.756775,450.356903 
	C476.378967,451.212646 476.415558,451.201660 476.733185,447.313049 
	C474.826508,447.145844 472.917358,446.978424 470.674988,446.781769 
	C470.674988,443.848785 470.674988,441.220886 470.675201,437.648193 
M486.224243,444.268829 
	C486.224243,439.845123 486.224243,435.421448 486.224243,430.768677 
	C484.541199,430.894104 483.443207,430.975952 482.117828,431.074707 
	C482.117828,436.832703 481.967621,442.298950 482.241486,447.743866 
	C482.297882,448.865173 483.936584,449.906921 484.845947,450.985321 
	C485.305359,450.688446 485.764740,450.391571 486.224152,450.094696 
	C486.224152,448.454895 486.224152,446.815125 486.224243,444.268829 
M641.883118,441.464935 
	C641.883118,438.029114 641.883118,434.593292 641.883118,430.989624 
	C640.325500,430.989624 639.234497,430.989624 638.099854,430.989624 
	C638.099854,437.560852 638.099854,443.928467 638.099854,450.296112 
	C638.545898,450.562164 638.991943,450.828217 639.437988,451.094269 
	C640.252625,450.028442 641.502075,449.063629 641.778809,447.872833 
	C642.181335,446.140656 641.882751,444.245575 641.883118,441.464935 
M331.224243,442.413269 
	C331.224243,438.627350 331.224243,434.841400 331.224243,431.055481 
	C330.729156,430.785583 330.234070,430.515686 329.738983,430.245789 
	C328.865082,431.379120 327.312164,432.469421 327.237152,433.653381 
	C326.943756,438.284088 327.182343,442.945587 327.095856,447.593262 
	C327.033630,450.936829 328.597748,451.027710 331.224152,449.966583 
	C331.224152,447.637573 331.224152,445.491913 331.224243,442.413269 
M583.983643,448.001740 
	C584.966064,448.964172 585.948486,449.926636 587.788330,451.729095 
	C587.788330,443.606659 587.788330,437.368011 587.788330,431.033936 
	C586.466614,431.033936 585.375122,431.033936 583.982788,431.033936 
	C583.982788,436.530457 583.982788,441.811707 583.983643,448.001740 
z"/>
<path fill="#252555" opacity="1.000000" stroke="none" 
	d="
M162.161499,469.127747 
	C140.187637,473.848816 117.959503,461.845642 110.109756,441.316803 
	C102.025200,420.173889 110.488281,396.047455 130.089676,385.320160 
	C133.364258,383.528076 134.313049,381.752563 134.242828,378.126648 
	C133.745392,352.441376 154.056519,331.832092 179.608414,331.803345 
	C205.079498,331.774689 225.322037,352.387909 224.957565,378.143005 
	C224.914764,381.167725 225.204987,383.102325 228.340073,384.824463 
	C251.383026,397.482300 259.100464,425.704987 245.867584,447.971497 
	C232.800446,469.959137 204.476089,476.670502 182.361298,463.022461 
	C181.514816,462.500031 180.646088,462.013672 180.562927,461.964935 
	C174.179794,464.479858 168.376266,466.766388 162.161499,469.127747 
M212.290771,353.258148 
	C199.172699,336.878357 179.125824,332.019104 161.462372,340.937653 
	C146.218674,348.634460 136.133957,367.207428 139.816589,380.997589 
	C153.369461,377.910187 166.230698,379.268280 178.068802,387.137726 
	C178.788498,387.616150 180.361725,387.643585 181.074341,387.175415 
	C193.001160,379.339935 205.902969,377.517883 219.613129,380.963959 
	C221.042297,371.628662 218.916977,363.406219 212.290771,353.258148 
M230.488937,391.878723 
	C228.433136,390.639313 226.377335,389.399872 223.914597,387.915070 
	C219.757004,401.788605 211.921249,411.828278 199.513840,418.208832 
	C198.451431,418.755127 197.906845,421.273193 197.952393,422.851318 
	C198.229935,432.467896 195.849060,441.326508 190.678131,449.382446 
	C188.742172,452.398529 186.337357,455.113708 184.150024,457.961243 
	C201.204880,470.537384 225.963104,466.478516 239.127808,449.180450 
	C252.731064,431.306091 249.257965,406.691254 230.488937,391.878723 
M124.977058,454.550476 
	C140.250641,467.643433 163.794785,469.086456 175.208359,457.471008 
	C165.264771,447.501556 160.787354,435.402893 161.373962,421.340393 
	C161.417343,420.300781 160.633301,418.674774 159.768051,418.232178 
	C147.250900,411.829895 139.292496,401.718018 135.417374,388.317322 
	C109.461304,399.724152 104.046623,433.212830 124.977058,454.550476 
M186.039291,447.498718 
	C191.446808,439.501923 193.768829,430.741180 192.857773,421.765808 
	C183.901825,421.765808 175.234528,421.765808 166.225601,421.765808 
	C165.721344,434.504608 169.733017,445.632324 179.928940,454.877289 
	C182.034210,452.385529 183.839645,450.248627 186.039291,447.498718 
M200.392227,384.719940 
	C194.803650,386.598969 189.215073,388.477997 184.135834,390.185760 
	C188.966431,398.389313 193.280396,405.715485 197.650711,413.137360 
	C207.745132,409.176025 216.524323,398.289307 219.018631,385.066284 
	C212.966354,384.894348 207.107208,384.727905 200.392227,384.719940 
M142.375549,385.487610 
	C141.822830,386.512268 140.590057,387.732025 140.819641,388.532257 
	C144.158295,400.169250 151.512039,408.444000 161.443802,413.502167 
	C165.904236,405.839813 170.171982,398.508484 174.607376,390.889160 
	C165.431473,384.674835 154.743073,382.690857 142.375549,385.487610 
M170.331085,407.006256 
	C169.300644,409.847626 168.270187,412.688965 167.172958,415.714478 
	C175.886566,418.475739 183.872238,418.647980 193.192215,415.160034 
	C188.816620,407.843506 184.769257,401.075806 179.936981,392.995636 
	C176.121399,398.547333 173.432465,402.459747 170.331085,407.006256 
z"/>
<path fill="#FF8FD5" opacity="1.000000" stroke="none" 
	d="
M496.081055,369.641052 
	C501.522766,372.286438 502.629272,377.005432 502.783966,381.935760 
	C503.019012,389.426605 502.707458,396.933899 502.906342,404.426819 
	C503.003632,408.091125 501.373749,408.901001 498.088959,408.907959 
	C490.069489,408.924927 490.069611,409.049225 490.068573,401.201263 
	C490.067871,395.869202 490.357666,390.513397 489.923309,385.216919 
	C489.751984,383.127716 487.934387,379.478699 486.922791,379.498016 
	C484.659210,379.541168 481.447784,380.880585 480.405884,382.708618 
	C478.587799,385.898468 477.782471,389.800690 477.179749,393.506348 
	C476.678070,396.590729 476.769531,399.858429 477.145660,402.978912 
	C477.745880,407.957672 475.689911,409.566437 470.994019,408.889130 
	C469.243713,408.636688 467.426514,408.848267 464.995453,408.848267 
	C464.995453,401.168396 465.025299,394.059052 464.981689,386.950165 
	C464.962555,383.831665 465.533508,380.019623 461.391815,379.200256 
	C457.193207,378.369720 454.658875,381.618561 453.716980,384.944885 
	C452.518372,389.177673 452.376953,393.739929 452.051758,398.180084 
	C451.811005,401.467438 452.004425,404.786591 452.004425,408.464844 
	C447.991333,408.464844 444.419006,408.464844 440.382690,408.464844 
	C440.382690,395.941254 440.382690,383.415985 440.382690,370.518524 
	C443.680695,370.518524 446.925476,370.518524 450.416351,370.518524 
	C450.860901,371.795410 451.330322,373.143738 451.552368,373.781494 
	C456.226532,371.846405 460.524353,369.093628 465.123016,368.432068 
	C469.897705,367.745178 474.717590,369.554688 477.221802,375.033478 
	C482.654541,369.957458 488.311096,366.492615 496.081055,369.641052 
z"/>
<path fill="#202051" opacity="1.000000" stroke="none" 
	d="
M348.467621,376.439819 
	C353.101685,387.092926 357.546082,397.414124 362.325104,408.512421 
	C357.662079,408.512421 353.547150,408.853271 349.548859,408.319977 
	C348.222290,408.143036 346.774506,405.895325 346.102295,404.292328 
	C342.641785,396.040070 342.723602,396.005798 334.011108,396.005798 
	C333.678406,396.005798 333.337494,396.053925 333.014191,395.998749 
	C324.877563,394.610352 318.948242,396.569427 317.203644,405.770691 
	C316.990906,406.892578 314.762543,408.197357 313.323547,408.402679 
	C310.436920,408.814545 307.450195,408.525055 303.778046,408.525055 
	C313.576782,385.956665 323.094757,364.034973 333.082947,341.030182 
	C338.465851,353.456635 343.371887,364.782257 348.467621,376.439819 
M329.889130,385.175293 
	C332.574097,385.175293 335.259094,385.175293 338.542114,385.175293 
	C336.354492,379.705811 334.535217,375.157257 332.383026,369.776276 
	C330.068726,375.378479 328.141876,380.042816 326.114410,384.950714 
	C327.390961,385.049164 328.205200,385.111938 329.889130,385.175293 
z"/>
<path fill="#FF8FD5" opacity="1.000000" stroke="none" 
	d="
M587.842590,399.158386 
	C586.585388,396.987823 585.529968,395.121979 584.199341,392.769531 
	C578.184021,397.059418 582.583313,403.331451 580.052124,408.802704 
	C577.329224,408.802704 574.052917,409.029144 570.843079,408.666870 
	C569.859802,408.555908 568.289734,406.832611 568.287231,405.844391 
	C568.233215,384.213684 568.362000,362.582489 568.469971,340.951477 
	C568.470581,340.823120 568.670227,340.695740 569.045410,340.246155 
	C572.526672,340.246155 576.283875,340.246155 580.741821,340.246155 
	C580.741821,353.915497 580.741821,367.593048 580.741821,382.531311 
	C585.493835,379.098236 589.174255,376.388123 592.907715,373.753235 
	C599.671692,368.979492 599.684937,368.998230 605.953857,376.026489 
	C601.705200,379.363831 597.470093,382.690552 592.942200,386.247253 
	C597.736816,393.546661 602.359741,400.584595 607.020813,407.680634 
	C598.000305,411.187469 593.893250,409.345795 587.842590,399.158386 
z"/>
<path fill="#FF8FD5" opacity="1.000000" stroke="none" 
	d="
M542.139648,372.574524 
	C546.484863,371.591461 550.576965,370.372192 555.525635,368.897705 
	C555.525635,382.975342 555.525635,395.508057 555.525635,408.065582 
	C548.266113,410.042511 545.097900,409.367096 542.827515,405.126099 
	C535.080566,411.247070 526.979675,411.396545 518.957520,405.894623 
	C510.621033,400.177063 509.410950,384.995209 516.317749,375.606689 
	C522.300720,367.473907 533.904480,365.990631 542.139648,372.574524 
M533.671082,378.204193 
	C525.335938,379.043488 520.945801,389.500397 527.237427,395.958801 
	C529.338379,398.115448 533.473999,399.632782 536.394897,399.253052 
	C539.073059,398.904907 542.702515,396.069305 543.585388,393.522797 
	C546.431274,385.314484 543.162231,380.491852 533.671082,378.204193 
z"/>
<path fill="#1D1D4F" opacity="1.000000" stroke="none" 
	d="
M271.999420,450.997131 
	C271.999420,413.867157 271.998901,377.236603 272.001465,340.606018 
	C272.001556,339.274628 271.522858,337.575958 272.160187,336.692963 
	C273.276184,335.146881 275.076965,333.135468 276.607269,333.121613 
	C278.097351,333.108032 279.768463,335.215210 281.030121,336.676208 
	C281.531860,337.257172 281.162903,338.604034 281.162964,339.602203 
	C281.165710,380.728333 281.165436,421.854492 281.164581,462.980621 
	C281.164551,463.813049 281.489624,464.904602 281.084961,465.429810 
	C279.824799,467.065216 278.029877,469.880005 276.913727,469.674683 
	C275.084503,469.338226 272.476166,467.149628 272.233246,465.450928 
	C271.579865,460.881775 272.003448,456.158569 271.999420,450.997131 
z"/>
<path fill="#FF8FD5" opacity="1.000000" stroke="none" 
	d="
M631.668640,368.856598 
	C642.056641,367.277557 651.796997,373.878693 653.893616,383.422913 
	C654.604431,386.658691 653.138306,387.842499 650.327515,388.676636 
	C642.916138,390.876129 635.567017,393.285095 627.353638,395.875366 
	C632.496216,400.574219 636.923584,399.115692 641.866028,396.764984 
	C643.570984,399.573975 645.241638,402.326416 646.896912,405.053497 
	C640.483459,410.611298 629.409851,411.241669 621.559631,406.663544 
	C614.774109,402.706360 610.698608,393.286804 612.433289,385.570190 
	C614.481384,376.459229 621.904297,369.889679 631.668640,368.856598 
M632.002380,386.509003 
	C634.910217,385.512360 637.818054,384.515717 641.040710,383.411163 
	C638.547180,378.634613 635.107544,376.930756 630.567078,378.444092 
	C625.892212,380.002228 624.312256,383.758270 624.325439,388.897156 
	C626.923767,388.111938 629.100220,387.454224 632.002380,386.509003 
z"/>
<path fill="#202051" opacity="1.000000" stroke="none" 
	d="
M407.133606,379.852295 
	C404.284424,380.124695 402.842499,379.487457 403.123840,376.649384 
	C403.316772,374.703156 403.160767,372.722321 403.160767,370.470856 
	C405.136902,370.298309 406.742889,370.158081 408.789673,369.979401 
	C408.789673,364.800354 408.789673,359.567749 408.789673,354.078430 
	C412.982208,354.078430 416.744202,354.078430 420.970642,354.078430 
	C420.970642,359.153595 420.970642,364.388641 420.970642,370.001129 
	C424.209137,370.001129 426.994049,370.001129 430.152466,370.001129 
	C430.152466,373.414246 430.152466,376.450226 430.152466,379.894043 
	C427.133881,379.894043 424.362579,379.894043 421.194641,379.894043 
	C421.194641,389.527435 421.194641,398.763672 421.194641,408.259125 
	C417.062469,408.259125 413.325562,408.259125 408.994202,408.259125 
	C408.994202,400.100220 409.059143,392.022400 408.931183,383.947693 
	C408.909485,382.578918 408.058380,381.223297 407.133606,379.852295 
z"/>
<path fill="#202051" opacity="1.000000" stroke="none" 
	d="
M384.127136,375.492004 
	C387.829773,372.798828 391.287384,370.406647 395.693756,367.358032 
	C395.693756,372.596313 395.693756,376.259583 395.693756,379.832153 
	C384.058746,383.013947 382.005859,385.754486 382.005768,397.752930 
	C382.005768,401.201447 382.005768,404.649963 382.005768,408.305664 
	C377.789825,408.305664 374.037842,408.305664 370.052185,408.305664 
	C370.052185,395.707550 370.052185,383.307709 370.052185,370.704163 
	C373.690826,370.704163 377.111115,370.704163 380.624878,370.704163 
	C380.990723,373.002258 381.323395,375.092133 381.746521,377.750153 
	C382.754150,376.826721 383.318146,376.309845 384.127136,375.492004 
z"/>
<path fill="#FF8FD5" opacity="1.000000" stroke="none" 
	d="
M663.151978,390.998108 
	C663.152161,385.344055 663.321594,380.181976 663.094788,375.037354 
	C662.934082,371.391205 664.166748,369.767395 667.932617,370.121216 
	C671.197205,370.427979 675.492126,368.919861 675.019165,374.818939 
	C674.956787,375.596313 675.150940,376.394287 675.293579,377.887482 
	C679.842651,374.082153 683.135010,369.007263 689.827454,369.071320 
	C689.827454,372.186096 690.124268,375.031067 689.687927,377.758759 
	C689.501770,378.922394 687.943665,380.461456 686.737610,380.770447 
	C678.890320,382.780853 675.975159,386.317230 675.932556,394.483551 
	C675.910828,398.640045 675.899292,402.796539 675.864197,406.952911 
	C675.861450,407.274780 675.708740,407.595428 675.393066,408.817200 
	C672.406250,408.817200 669.121033,409.143341 665.968018,408.640442 
	C664.863220,408.464264 663.385498,406.302856 663.283142,404.956329 
	C662.943604,400.492523 663.152954,395.987000 663.151978,390.998108 
z"/>
<path fill="#41416B" opacity="1.000000" stroke="none" 
	d="
M652.675110,444.080688 
	C652.674988,444.684387 652.722107,444.868347 652.667725,445.014496 
	C651.967224,446.896790 651.242065,450.388794 650.542786,450.384369 
	C646.616577,450.359436 648.532166,447.013733 648.413147,445.093567 
	C648.135925,440.619751 648.324768,436.117065 648.324768,430.793213 
	C656.416687,430.403625 655.780640,439.116577 660.541077,441.755676 
	C663.918579,439.201965 657.666870,432.124603 665.365417,430.345490 
	C665.365417,437.408295 665.365417,443.781433 665.365417,450.635162 
	C657.441284,450.620148 658.276489,442.061462 652.675171,439.226562 
	C652.675171,440.687042 652.675171,442.165192 652.675110,444.080688 
z"/>
<path fill="#2E2E5C" opacity="1.000000" stroke="none" 
	d="
M603.632568,444.393799 
	C602.225525,442.373962 601.035278,440.654938 599.713928,438.746368 
	C597.316589,442.484894 601.108093,448.258881 597.034119,450.876068 
	C596.346375,450.626892 595.658691,450.377686 594.970947,450.128510 
	C594.970947,443.868317 594.970947,437.608154 594.970947,430.815796 
	C602.651184,430.852783 602.193359,439.337830 607.539917,442.393860 
	C607.539917,438.455475 607.539917,434.808044 607.539917,430.986115 
	C609.239685,430.986115 610.330750,430.986115 611.652466,430.986115 
	C611.652466,437.401245 611.652466,443.626129 611.652466,450.021973 
	C606.333557,452.124817 606.012878,447.030090 603.632568,444.393799 
z"/>
<path fill="#343461" opacity="1.000000" stroke="none" 
	d="
M356.873474,442.662231 
	C353.980865,450.100372 348.317413,452.651337 342.324951,449.604370 
	C337.259125,447.028595 335.349457,440.541290 338.202087,435.451752 
	C340.295197,431.717255 343.665344,430.196411 347.786530,430.424438 
	C351.669006,430.639282 354.781403,432.153564 356.507141,437.659790 
	C353.744843,436.527618 351.924713,435.932251 350.246979,435.062225 
	C346.890472,433.321472 344.108429,433.859406 342.090332,437.044250 
	C340.092072,440.197906 341.083221,444.692383 344.221954,446.145020 
	C347.550537,447.685455 350.597504,447.492004 352.243713,443.480530 
	C351.831207,443.139557 351.625397,442.861145 351.354248,442.762848 
	C349.574982,442.117950 347.781647,441.511932 345.992889,440.893250 
	C347.850861,440.389099 349.721527,439.446198 351.563385,439.499420 
	C353.559906,439.557159 357.076691,437.683960 356.873474,442.662231 
z"/>
<path fill="#343461" opacity="1.000000" stroke="none" 
	d="
M676.815308,444.860718 
	C682.128845,448.146576 684.281067,447.658783 686.343018,443.091400 
	C686.034851,442.971588 685.726074,442.853271 685.417358,442.734772 
	C683.665955,442.062469 681.914490,441.390137 680.163086,440.717804 
	C681.935852,440.272156 683.687561,439.671143 685.487671,439.426941 
	C687.103455,439.207733 688.772522,439.380798 690.352722,439.380798 
	C691.529968,445.235199 689.313416,448.882721 683.910889,450.398438 
	C678.682007,451.865417 673.349426,448.959625 671.695190,443.741821 
	C670.018188,438.452484 672.597717,432.809113 677.501648,431.038696 
	C682.920288,429.082458 687.801941,431.093292 690.457275,437.030762 
	C688.569763,436.690887 686.729614,436.900360 685.755798,436.080627 
	C683.062866,433.813812 680.341003,433.226074 677.680969,435.493073 
	C674.743591,437.996429 674.787903,441.245667 676.815308,444.860718 
z"/>
<path fill="#2E2E5C" opacity="1.000000" stroke="none" 
	d="
M395.223450,436.446289 
	C399.401978,430.218201 405.699219,428.643097 410.728516,432.256592 
	C416.015869,436.055450 416.215485,442.332672 411.119568,449.009613 
	C412.238892,450.498047 413.396942,452.037994 414.554993,453.577942 
	C414.376129,453.897217 414.197266,454.216492 414.018372,454.535797 
	C412.230042,453.747620 410.450928,452.937531 408.649994,452.179230 
	C407.514221,451.701019 406.373016,451.026794 405.187622,450.908875 
	C396.897400,450.083954 393.420685,445.293915 395.223450,436.446289 
M410.313324,442.772095 
	C411.393005,438.642578 410.287415,435.039856 405.985809,434.367096 
	C403.924774,434.044769 400.430756,435.925598 399.364563,437.813293 
	C397.716797,440.730621 398.199432,444.529053 401.834991,446.331543 
	C405.245758,448.022552 408.275635,447.214874 410.313324,442.772095 
z"/>
<path fill="#2B2B5A" opacity="1.000000" stroke="none" 
	d="
M374.000916,438.700439 
	C374.811554,436.222656 375.125519,433.809875 375.483276,431.060303 
	C376.447052,430.987793 377.542633,430.905334 378.933716,430.800659 
	C378.933716,437.390411 378.933716,443.765717 378.933716,450.141327 
	C375.313690,450.223419 375.313690,450.223419 374.979340,442.357849 
	C372.455078,442.357849 369.909180,442.357849 367.356262,442.357849 
	C366.904114,445.035461 366.522217,447.695190 365.892914,450.295074 
	C365.840546,450.511475 364.118164,450.323669 362.979187,450.323669 
	C362.979187,443.861755 362.979187,437.607758 362.979187,431.103821 
	C364.258484,431.103821 365.455627,431.103821 366.958618,431.103821 
	C366.958618,433.687836 366.958618,435.966644 366.958618,438.765381 
	C369.337219,438.765381 371.420715,438.765381 374.000916,438.700439 
z"/>
<path fill="#343461" opacity="1.000000" stroke="none" 
	d="
M308.329468,438.144104 
	C310.852783,438.592682 313.178345,438.592682 316.006775,438.592682 
	C316.198242,436.230743 316.393158,433.825989 316.610596,431.143402 
	C318.886261,430.582275 320.781586,430.093689 320.656006,433.713562 
	C320.500153,438.206573 320.777557,442.718536 320.510620,447.201050 
	C320.441040,448.369598 319.044434,449.459137 318.257324,450.584961 
	C317.631989,449.463623 316.720856,448.405457 316.455353,447.204590 
	C316.140381,445.780029 316.381256,444.232574 316.381256,442.395020 
	C313.652954,442.395020 311.107178,442.395020 308.099121,442.395020 
	C308.099121,444.941132 308.099121,447.518036 308.099121,450.094910 
	C307.617462,450.400421 307.135803,450.705963 306.654114,451.011475 
	C305.752716,449.948212 304.126495,448.920471 304.072327,447.815674 
	C303.803741,442.335999 303.949860,436.835999 303.949860,431.056824 
	C305.336761,431.056824 306.565674,431.056824 308.131714,431.056824 
	C308.131714,433.404541 308.131714,435.550018 308.329468,438.144104 
z"/>
<path fill="#2B2B5A" opacity="1.000000" stroke="none" 
	d="
M562.970520,434.336121 
	C563.036621,433.056122 562.783691,431.931549 563.225037,431.468323 
	C564.928711,429.680084 574.489746,430.863403 576.219727,432.935547 
	C578.694580,435.899933 577.825928,439.225494 573.519714,442.692871 
	C574.751526,445.086700 576.006165,447.524902 577.357849,450.151794 
	C570.555542,452.188995 571.839966,444.054169 567.290955,442.816101 
	C567.144226,445.284576 567.012451,447.502136 566.863831,450.002777 
	C564.618347,450.900238 562.877136,451.262604 562.950134,447.720398 
	C563.038879,443.413727 562.970764,439.103790 562.970520,434.336121 
M573.364990,436.482758 
	C571.551331,435.418243 569.737610,434.353760 567.336426,432.944458 
	C567.336426,436.193726 567.336426,437.906799 567.336426,441.176910 
	C569.945374,439.504639 571.632141,438.423462 573.364990,436.482758 
z"/>
<path fill="#2B2B5A" opacity="1.000000" stroke="none" 
	d="
M432.810547,432.141174 
	C433.930786,431.350403 435.029541,430.950867 436.862366,430.284363 
	C436.862366,435.011597 437.054413,438.952850 436.814087,442.867584 
	C436.509125,447.835358 433.023743,450.963348 428.381989,450.850372 
	C423.561127,450.732971 420.861969,447.732056 420.795105,442.327271 
	C420.750061,438.686646 420.786530,435.045013 420.786530,431.100220 
	C422.222198,431.100220 423.417267,431.100220 424.875763,431.100220 
	C424.875763,435.170898 424.529205,439.017731 425.042725,442.746094 
	C425.254395,444.283234 427.314148,445.565918 428.533356,446.964325 
	C429.930084,445.645020 432.251160,444.497559 432.534851,442.971405 
	C433.162933,439.592712 432.767212,436.023712 432.810547,432.141174 
z"/>
<path fill="#2E2E5C" opacity="1.000000" stroke="none" 
	d="
M445.242676,441.099121 
	C446.287933,438.252319 446.954590,435.643738 448.184814,433.335480 
	C448.792114,432.196014 450.388092,431.068665 451.633179,430.950287 
	C452.592377,430.859100 454.246765,432.137299 454.653900,433.174774 
	C456.811890,438.673737 458.673401,444.289062 461.095123,451.162628 
	C457.230713,449.424622 454.401367,447.150024 451.581299,447.161499 
	C448.673828,447.173370 445.775391,449.410919 441.930359,451.085144 
	C443.194366,447.243042 444.145416,444.352112 445.242676,441.099121 
M452.714630,438.907715 
	C452.323761,438.034149 451.932892,437.160553 451.323639,435.798950 
	C450.391968,438.487732 449.614716,440.730865 448.761810,443.192383 
	C450.863342,443.192383 452.276276,443.192383 453.944489,443.192383 
	C453.539246,441.788330 453.226685,440.705292 452.714630,438.907715 
z"/>
<path fill="#2B2B5A" opacity="1.000000" stroke="none" 
	d="
M548.048828,443.074463 
	C547.365723,444.674896 547.394714,446.358337 546.787476,447.767609 
	C546.260681,448.990356 545.013306,449.902649 544.084412,450.952148 
	C543.708618,450.634521 543.332825,450.316925 542.957031,449.999298 
	C542.957031,443.760284 542.957031,437.521271 542.957031,431.304474 
	C552.508301,429.882721 556.531799,431.242493 557.098511,436.010040 
	C557.611572,440.326355 554.809570,442.612640 548.048828,443.074463 
M549.212158,439.802765 
	C550.453613,438.620667 551.695129,437.438538 552.936584,436.256439 
	C551.232910,435.275177 549.529236,434.293884 547.825562,433.312592 
	C547.354858,433.739960 546.884094,434.167358 546.413391,434.594727 
	C547.066101,436.327515 547.718872,438.060303 549.212158,439.802765 
z"/>
<path fill="#2E2E5C" opacity="1.000000" stroke="none" 
	d="
M524.986328,430.781311 
	C528.892090,430.758087 526.856995,432.605865 526.322266,433.898285 
	C524.157471,439.130981 521.965515,444.352417 519.483582,450.296509 
	C519.440186,450.277008 517.568115,450.014771 517.315002,449.230225 
	C515.383850,443.244232 513.768494,437.156342 512.084045,431.203369 
	C514.355286,430.886169 514.355286,430.886169 519.216248,438.255249 
	C521.039917,435.755371 522.852051,433.271362 524.986328,430.781311 
z"/>
<path fill="#2B2B5A" opacity="1.000000" stroke="none" 
	d="
M499.902649,430.787109 
	C502.474945,431.104950 504.602051,431.422729 506.729156,431.740509 
	C506.654572,432.337891 506.579956,432.935303 506.505371,433.532684 
	C504.827698,433.835541 503.150024,434.138397 501.234436,434.484222 
	C501.234436,439.631439 501.234436,444.720520 501.234436,449.973206 
	C498.548370,451.002411 497.021210,450.840668 497.102600,447.541046 
	C497.208313,443.256104 497.128418,438.966522 497.128418,434.339203 
	C495.388214,434.149719 493.828949,433.979919 492.273041,433.810486 
	C492.609619,430.786743 492.609619,430.786743 499.902649,430.787109 
z"/>
<path fill="#2B2B5A" opacity="1.000000" stroke="none" 
	d="
M627.975098,434.088562 
	C627.304871,438.538086 627.240662,442.957184 626.777527,447.334045 
	C626.641602,448.618805 625.373901,449.783813 624.625000,451.003723 
	C624.106140,450.772583 623.587341,450.541473 623.068481,450.310364 
	C623.068481,445.095337 623.068481,439.880341 623.068481,434.935059 
	C622.532532,434.574615 622.404602,434.470734 622.261658,434.395264 
	C620.672668,433.555939 619.081421,432.721039 617.490723,431.884949 
	C620.136414,431.518951 622.777954,431.117371 625.430054,430.805603 
	C626.409485,430.690491 627.454163,430.612335 628.396790,430.830109 
	C629.634766,431.116058 630.801331,431.711060 631.998596,432.173218 
	C630.808716,432.796143 629.618774,433.419067 627.975098,434.088562 
z"/>
<path fill="#41416B" opacity="1.000000" stroke="none" 
	d="
M470.675110,438.120605 
	C470.674988,441.220886 470.674988,443.848785 470.674988,446.781769 
	C472.917358,446.978424 474.826508,447.145844 476.733185,447.313049 
	C476.415558,451.201660 476.378967,451.212646 466.756775,450.356903 
	C466.756775,444.059357 466.756775,437.701996 466.756775,431.320587 
	C470.674805,430.765015 470.674805,430.765015 470.675110,438.120605 
z"/>
<path fill="#2E2E5C" opacity="1.000000" stroke="none" 
	d="
M486.224182,444.722107 
	C486.224152,446.815125 486.224152,448.454895 486.224152,450.094696 
	C485.764740,450.391571 485.305359,450.688446 484.845947,450.985321 
	C483.936584,449.906921 482.297882,448.865173 482.241486,447.743866 
	C481.967621,442.298950 482.117828,436.832703 482.117828,431.074707 
	C483.443207,430.975952 484.541199,430.894104 486.224243,430.768677 
	C486.224243,435.421448 486.224243,439.845123 486.224182,444.722107 
z"/>
<path fill="#2E2E5C" opacity="1.000000" stroke="none" 
	d="
M641.883118,441.942444 
	C641.882751,444.245575 642.181335,446.140656 641.778809,447.872833 
	C641.502075,449.063629 640.252625,450.028442 639.437988,451.094269 
	C638.991943,450.828217 638.545898,450.562164 638.099854,450.296112 
	C638.099854,443.928467 638.099854,437.560852 638.099854,430.989624 
	C639.234497,430.989624 640.325500,430.989624 641.883118,430.989624 
	C641.883118,434.593292 641.883118,438.029114 641.883118,441.942444 
z"/>
<path fill="#2E2E5C" opacity="1.000000" stroke="none" 
	d="
M331.224182,442.879761 
	C331.224152,445.491913 331.224152,447.637573 331.224152,449.966583 
	C328.597748,451.027710 327.033630,450.936829 327.095856,447.593262 
	C327.182343,442.945587 326.943756,438.284088 327.237152,433.653381 
	C327.312164,432.469421 328.865082,431.379120 329.738983,430.245789 
	C330.234070,430.515686 330.729156,430.785583 331.224243,431.055481 
	C331.224243,434.841400 331.224243,438.627350 331.224182,442.879761 
z"/>
<path fill="#252555" opacity="1.000000" stroke="none" 
	d="
M583.983215,447.547363 
	C583.982788,441.811707 583.982788,436.530457 583.982788,431.033936 
	C585.375122,431.033936 586.466614,431.033936 587.788330,431.033936 
	C587.788330,437.368011 587.788330,443.606659 587.788330,451.729095 
	C585.948486,449.926636 584.966064,448.964172 583.983215,447.547363 
z"/>
<path fill="#F4EC24" opacity="1.000000" stroke="none" 
	d="
M212.511841,353.542267 
	C218.916977,363.406219 221.042297,371.628662 219.613129,380.963959 
	C205.902969,377.517883 193.001160,379.339935 181.074341,387.175415 
	C180.361725,387.643585 178.788498,387.616150 178.068802,387.137726 
	C166.230698,379.268280 153.369461,377.910187 139.816589,380.997589 
	C136.133957,367.207428 146.218674,348.634460 161.462372,340.937653 
	C179.125824,332.019104 199.172699,336.878357 212.511841,353.542267 
z"/>
<path fill="#FD8CD3" opacity="1.000000" stroke="none" 
	d="
M230.794647,392.083313 
	C249.257965,406.691254 252.731064,431.306091 239.127808,449.180450 
	C225.963104,466.478516 201.204880,470.537384 184.150024,457.961243 
	C186.337357,455.113708 188.742172,452.398529 190.678131,449.382446 
	C195.849060,441.326508 198.229935,432.467896 197.952393,422.851318 
	C197.906845,421.273193 198.451431,418.755127 199.513840,418.208832 
	C211.921249,411.828278 219.757004,401.788605 223.914597,387.915070 
	C226.377335,389.399872 228.433136,390.639313 230.794647,392.083313 
z"/>
<path fill="#96E5FE" opacity="1.000000" stroke="none" 
	d="
M124.724106,454.296387 
	C104.046623,433.212830 109.461304,399.724152 135.417374,388.317322 
	C139.292496,401.718018 147.250900,411.829895 159.768051,418.232178 
	C160.633301,418.674774 161.417343,420.300781 161.373962,421.340393 
	C160.787354,435.402893 165.264771,447.501556 175.208359,457.471008 
	C163.794785,469.086456 140.250641,467.643433 124.724106,454.296387 
z"/>
<path fill="#F9F9FB" opacity="1.000000" stroke="none" 
	d="
M185.842194,447.805237 
	C183.839645,450.248627 182.034210,452.385529 179.928940,454.877289 
	C169.733017,445.632324 165.721344,434.504608 166.225601,421.765808 
	C175.234528,421.765808 183.901825,421.765808 192.857773,421.765808 
	C193.768829,430.741180 191.446808,439.501923 185.842194,447.805237 
z"/>
<path fill="#F9F9FB" opacity="1.000000" stroke="none" 
	d="
M200.820129,384.640686 
	C207.107208,384.727905 212.966354,384.894348 219.018631,385.066284 
	C216.524323,398.289307 207.745132,409.176025 197.650711,413.137360 
	C193.280396,405.715485 188.966431,398.389313 184.135834,390.185760 
	C189.215073,388.477997 194.803650,386.598969 200.820129,384.640686 
z"/>
<path fill="#F9F9FB" opacity="1.000000" stroke="none" 
	d="
M142.765045,385.368652 
	C154.743073,382.690857 165.431473,384.674835 174.607376,390.889160 
	C170.171982,398.508484 165.904236,405.839813 161.443802,413.502167 
	C151.512039,408.444000 144.158295,400.169250 140.819641,388.532257 
	C140.590057,387.732025 141.822830,386.512268 142.765045,385.368652 
z"/>
<path fill="#F9F9FB" opacity="1.000000" stroke="none" 
	d="
M170.537323,406.689209 
	C173.432465,402.459747 176.121399,398.547333 179.936981,392.995636 
	C184.769257,401.075806 188.816620,407.843506 193.192215,415.160034 
	C183.872238,418.647980 175.886566,418.475739 167.172958,415.714478 
	C168.270187,412.688965 169.300644,409.847626 170.537323,406.689209 
z"/>
<path fill="#F9F9FB" opacity="1.000000" stroke="none" 
	d="
M329.454285,385.175018 
	C328.205200,385.111938 327.390961,385.049164 326.114410,384.950714 
	C328.141876,380.042816 330.068726,375.378479 332.383026,369.776276 
	C334.535217,375.157257 336.354492,379.705811 338.542114,385.175293 
	C335.259094,385.175293 332.574097,385.175293 329.454285,385.175018 
z"/>
<path fill="#FFFFFF" opacity="1.000000" stroke="none" 
	d="
M534.053101,378.206360 
	C543.162231,380.491852 546.431274,385.314484 543.585388,393.522797 
	C542.702515,396.069305 539.073059,398.904907 536.394897,399.253052 
	C533.473999,399.632782 529.338379,398.115448 527.237427,395.958801 
	C520.945801,389.500397 525.335938,379.043488 534.053101,378.206360 
z"/>
<path fill="#FFFFFF" opacity="1.000000" stroke="none" 
	d="
M631.639526,386.652771 
	C629.100220,387.454224 626.923767,388.111938 624.325439,388.897156 
	C624.312256,383.758270 625.892212,380.002228 630.567078,378.444092 
	C635.107544,376.930756 638.547180,378.634613 641.040710,383.411163 
	C637.818054,384.515717 634.910217,385.512360 631.639526,386.652771 
z"/>
<path fill="#F9F9FB" opacity="1.000000" stroke="none" 
	d="
M410.193604,443.139557 
	C408.275635,447.214874 405.245758,448.022552 401.834991,446.331543 
	C398.199432,444.529053 397.716797,440.730621 399.364563,437.813293 
	C400.430756,435.925598 403.924774,434.044769 405.985809,434.367096 
	C410.287415,435.039856 411.393005,438.642578 410.193604,443.139557 
z"/>
<path fill="#F9F9FB" opacity="1.000000" stroke="none" 
	d="
M573.341919,436.912537 
	C571.632141,438.423462 569.945374,439.504639 567.336426,441.176910 
	C567.336426,437.906799 567.336426,436.193726 567.336426,432.944458 
	C569.737610,434.353760 571.551331,435.418243 573.341919,436.912537 
z"/>
<path fill="#F9F9FB" opacity="1.000000" stroke="none" 
	d="
M452.814362,439.265015 
	C453.226685,440.705292 453.539246,441.788330 453.944489,443.192383 
	C452.276276,443.192383 450.863342,443.192383 448.761810,443.192383 
	C449.614716,440.730865 450.391968,438.487732 451.323639,435.798950 
	C451.932892,437.160553 452.323761,438.034149 452.814362,439.265015 
z"/>
<path fill="#F9F9FB" opacity="1.000000" stroke="none" 
	d="
M548.791870,439.797913 
	C547.718872,438.060303 547.066101,436.327515 546.413391,434.594727 
	C546.884094,434.167358 547.354858,433.739960 547.825562,433.312592 
	C549.529236,434.293884 551.232910,435.275177 552.936584,436.256439 
	C551.695129,437.438538 550.453613,438.620667 548.791870,439.797913 
z"/>
</svg>